<mxfile host="app.diagrams.net" agent="Mozilla/5.0 (X11; Linux x86_64) AppleWebKit/537.36 (KHTML, like Gecko) Chrome/127.0.0.0 Safari/537.36" version="24.7.6">
  <diagram name="Page-1" id="qIa0hlraXOXYDwAOCz4L">
    <mxGraphModel dx="1834" dy="1226" grid="0" gridSize="10" guides="1" tooltips="1" connect="1" arrows="1" fold="1" page="0" pageScale="1" pageWidth="850" pageHeight="1100" math="0" shadow="0">
      <root>
        <mxCell id="0" />
        <mxCell id="1" parent="0" />
        <mxCell id="C-H81hd3osmLKjWRAivN-9" style="edgeStyle=none;curved=1;rounded=0;orthogonalLoop=1;jettySize=auto;html=1;exitX=1;exitY=0.25;exitDx=0;exitDy=0;entryX=0;entryY=0.25;entryDx=0;entryDy=0;fontSize=12;startSize=8;endSize=8;" edge="1" parent="1" source="C-H81hd3osmLKjWRAivN-1" target="C-H81hd3osmLKjWRAivN-3">
          <mxGeometry relative="1" as="geometry">
            <Array as="points">
              <mxPoint x="184" y="-80" />
            </Array>
          </mxGeometry>
        </mxCell>
        <mxCell id="C-H81hd3osmLKjWRAivN-10" value="asp.session_id: 000001" style="edgeLabel;html=1;align=center;verticalAlign=middle;resizable=0;points=[];fontSize=12;" vertex="1" connectable="0" parent="C-H81hd3osmLKjWRAivN-9">
          <mxGeometry x="-0.006" y="1" relative="1" as="geometry">
            <mxPoint as="offset" />
          </mxGeometry>
        </mxCell>
        <mxCell id="C-H81hd3osmLKjWRAivN-13" style="edgeStyle=none;curved=1;rounded=0;orthogonalLoop=1;jettySize=auto;html=1;exitX=0.5;exitY=1;exitDx=0;exitDy=0;fontSize=12;startSize=8;endSize=8;" edge="1" parent="1" source="C-H81hd3osmLKjWRAivN-1" target="C-H81hd3osmLKjWRAivN-12">
          <mxGeometry relative="1" as="geometry" />
        </mxCell>
        <mxCell id="C-H81hd3osmLKjWRAivN-14" value="session: id 0000001&lt;div&gt;is assigned to 21100184&lt;/div&gt;" style="edgeLabel;html=1;align=center;verticalAlign=middle;resizable=0;points=[];fontSize=12;" vertex="1" connectable="0" parent="C-H81hd3osmLKjWRAivN-13">
          <mxGeometry x="0.0553" y="2" relative="1" as="geometry">
            <mxPoint as="offset" />
          </mxGeometry>
        </mxCell>
        <mxCell id="C-H81hd3osmLKjWRAivN-1" value="erp.rajalakshmi.org" style="image;html=1;image=img/lib/clip_art/computers/Server_Rack_128x128.png" vertex="1" parent="1">
          <mxGeometry x="-155" y="-80" width="80" height="80" as="geometry" />
        </mxCell>
        <mxCell id="C-H81hd3osmLKjWRAivN-7" style="edgeStyle=none;curved=1;rounded=0;orthogonalLoop=1;jettySize=auto;html=1;exitX=0;exitY=0.5;exitDx=0;exitDy=0;fontSize=12;startSize=8;endSize=8;" edge="1" parent="1" source="C-H81hd3osmLKjWRAivN-3" target="C-H81hd3osmLKjWRAivN-1">
          <mxGeometry relative="1" as="geometry">
            <Array as="points">
              <mxPoint x="169" y="-5" />
            </Array>
          </mxGeometry>
        </mxCell>
        <mxCell id="C-H81hd3osmLKjWRAivN-8" value="replay:&lt;div&gt;user: 211001084&lt;br&gt;pass: 2110084&lt;/div&gt;" style="edgeLabel;html=1;align=center;verticalAlign=middle;resizable=0;points=[];fontSize=12;" vertex="1" connectable="0" parent="C-H81hd3osmLKjWRAivN-7">
          <mxGeometry relative="1" as="geometry">
            <mxPoint as="offset" />
          </mxGeometry>
        </mxCell>
        <mxCell id="C-H81hd3osmLKjWRAivN-3" value="comp.devsrec.club" style="image;html=1;image=img/lib/clip_art/computers/Server_Rack_128x128.png" vertex="1" parent="1">
          <mxGeometry x="261" y="-80" width="80" height="80" as="geometry" />
        </mxCell>
        <mxCell id="C-H81hd3osmLKjWRAivN-5" style="edgeStyle=none;curved=1;rounded=0;orthogonalLoop=1;jettySize=auto;html=1;exitX=0.5;exitY=0;exitDx=0;exitDy=0;fontSize=12;startSize=8;endSize=8;" edge="1" parent="1" source="C-H81hd3osmLKjWRAivN-4" target="C-H81hd3osmLKjWRAivN-3">
          <mxGeometry relative="1" as="geometry" />
        </mxCell>
        <mxCell id="C-H81hd3osmLKjWRAivN-6" value="user: 211001084&lt;br&gt;pass: 211001084" style="edgeLabel;html=1;align=center;verticalAlign=middle;resizable=0;points=[];fontSize=12;" vertex="1" connectable="0" parent="C-H81hd3osmLKjWRAivN-5">
          <mxGeometry x="0.0521" y="3" relative="1" as="geometry">
            <mxPoint x="-80" y="36" as="offset" />
          </mxGeometry>
        </mxCell>
        <mxCell id="C-H81hd3osmLKjWRAivN-15" style="edgeStyle=none;curved=1;rounded=0;orthogonalLoop=1;jettySize=auto;html=1;exitX=0.5;exitY=0;exitDx=0;exitDy=0;fontSize=12;startSize=8;endSize=8;" edge="1" parent="1" source="C-H81hd3osmLKjWRAivN-4">
          <mxGeometry relative="1" as="geometry">
            <mxPoint x="-106" y="5" as="targetPoint" />
          </mxGeometry>
        </mxCell>
        <mxCell id="C-H81hd3osmLKjWRAivN-4" value="" style="shape=actor;whiteSpace=wrap;html=1;" vertex="1" parent="1">
          <mxGeometry x="98" y="242" width="40" height="48" as="geometry" />
        </mxCell>
        <mxCell id="C-H81hd3osmLKjWRAivN-11" style="edgeStyle=none;curved=1;rounded=0;orthogonalLoop=1;jettySize=auto;html=1;exitX=0.75;exitY=1;exitDx=0;exitDy=0;fontSize=12;startSize=8;endSize=8;" edge="1" parent="1" source="C-H81hd3osmLKjWRAivN-1" target="C-H81hd3osmLKjWRAivN-1">
          <mxGeometry relative="1" as="geometry" />
        </mxCell>
        <mxCell id="C-H81hd3osmLKjWRAivN-12" value="" style="shape=cylinder3;whiteSpace=wrap;html=1;boundedLbl=1;backgroundOutline=1;size=15;" vertex="1" parent="1">
          <mxGeometry x="-390" y="-105" width="60" height="80" as="geometry" />
        </mxCell>
      </root>
    </mxGraphModel>
  </diagram>
</mxfile>
